<svg xmlns="http://www.w3.org/2000/svg" width="410" height="404" viewBox="0 0 410 404" fill="none">
  <path d="M399.641 59.5246L215.643 388.545C211.923 395.186 202.222 395.213 198.469 388.596L10.5817 59.5563C6.38087 52.202 12.6802 43.2665 21.0281 44.7586L205.223 77.6824C206.398 77.8924 207.601 77.8905 208.776 77.6769L389.119 44.8058C397.439 43.3014 403.76 52.1725 399.597 59.5303L399.641 59.5246Z" fill="#41D1FF"/>
  <path d="M292.965 1.57403L156.757 28.2552C155.561 28.4924 154.498 29.1623 153.748 30.1487C153 31.1337 152.608 32.3667 152.642 33.6286L157.461 210.637C157.515 212.679 159.144 214.333 161.186 214.333C162.041 214.333 162.869 214.049 163.546 213.53L212.334 176.702C213.203 176.049 214.374 175.981 215.318 176.531L263.541 204.594C264.259 205.005 265.102 205.164 265.93 205.046C267.736 204.788 269.046 203.209 269.046 201.38V13.2109C269.046 5.83894 261.998 0.65661 254.96 2.12131L292.965 1.57403Z" fill="#BD34FE"/>
  <path d="M292.965 1.57403L156.757 28.2552C155.561 28.4924 154.498 29.1623 153.748 30.1487C153 31.1337 152.608 32.3667 152.642 33.6286L157.461 210.637C157.515 212.679 159.144 214.333 161.186 214.333C162.041 214.333 162.869 214.049 163.546 213.53L212.334 176.702C213.203 176.049 214.374 175.981 215.318 176.531L263.541 204.594C264.259 205.005 265.102 205.164 265.93 205.046C267.736 204.788 269.046 203.209 269.046 201.38V13.2109C269.046 5.83894 261.998 0.65661 254.96 2.12131L292.965 1.57403Z" fill="url(#paint0_linear)"/>
  <defs>
    <linearGradient id="paint0_linear" x1="292.965" y1="1.57403" x2="157.461" y2="210.637" gradientUnits="userSpaceOnUse">
      <stop stop-color="#FFEA83"/>
      <stop offset="0.0833333" stop-color="#FFDD35"/>
      <stop offset="1" stop-color="#FFA800"/>
    </linearGradient>
  </defs>
</svg>
